<?xml version="1.0" encoding="iso-8859-1"?>
<svg width="793" height="388" viewBox="0 0 793 388" fill="none" xmlns="http://www.w3.org/2000/svg">
    <path fill-rule="evenodd" clip-rule="evenodd" d="M184 240C214.928 240 240 214.928 240 184C240 153.072 214.928 128 184 128C153.072 128 128 153.072 128 184C128 214.928 153.072 240 184 240Z" fill="#7EB394"/>
    <rect x="128" y="128" width="56" height="56" fill="#7EB394"/>
    <path fill-rule="evenodd" clip-rule="evenodd" d="M56 240C25.0721 240 -7.62939e-06 214.928 -7.62939e-06 184C-7.62939e-06 153.072 25.0721 128 56 128C86.9279 128 112 153.072 112 184C112 214.928 86.9279 240 56 240Z" fill="#7EB394"/>
    <rect width="56" height="56" transform="matrix(-1 0 0 1 112 128)" fill="#7EB394"/>
    <path fill-rule="evenodd" clip-rule="evenodd" d="M184 -7.62939e-06C214.928 -7.62939e-06 240 25.0721 240 56C240 86.9279 214.928 112 184 112C153.072 112 128 86.9279 128 56C128 25.0721 153.072 -7.62939e-06 184 -7.62939e-06Z" fill="#7EB394"/>
    <rect width="56" height="56" transform="matrix(1 0 0 -1 128 112)" fill="#7EB394"/>
    <path d="M30 229.92C30 213.92 34 198.96 42 185.04C50.16 171.12 61.12 160.08 74.88 151.92C88.8 143.6 103.84 139.44 120 139.44C136.16 139.44 151.12 143.6 164.88 151.92C178.8 160.08 189.84 171.12 198 185.04C206.32 198.96 210.48 213.92 210.48 229.92C210.48 246.24 206.32 261.28 198 275.04C189.84 288.8 178.8 299.76 164.88 307.92C151.12 315.92 136.16 319.92 120 319.92C103.68 319.92 88.64 315.92 74.88 307.92C61.12 299.76 50.16 288.8 42 275.04C34 261.28 30 246.24 30 229.92ZM66 229.92C66 240.16 68.4 249.6 73.2 258.24C78.16 266.88 84.8 273.76 93.12 278.88C101.6 283.84 110.96 286.32 121.2 286.32C131.12 286.32 140.16 283.84 148.32 278.88C156.48 273.76 162.88 266.96 167.52 258.48C172.16 249.84 174.48 240.32 174.48 229.92C174.48 219.36 172.08 209.76 167.28 201.12C162.48 192.48 155.92 185.68 147.6 180.72C139.44 175.6 130.32 173.04 120.24 173.04C110.16 173.04 100.96 175.6 92.64 180.72C84.48 185.68 78 192.48 73.2 201.12C68.4 209.76 66 219.36 66 229.92ZM272.535 237.12C275.415 231.52 279.335 226.48 284.295 222C289.415 217.52 294.615 214.08 299.895 211.68C305.175 209.12 309.335 207.84 312.375 207.84L310.695 241.44C309.735 241.28 308.375 241.2 306.615 241.2C299.895 241.2 293.975 242.96 288.855 246.48C283.735 250 279.815 254.56 277.095 260.16C274.375 265.6 273.015 271.2 273.015 276.96V318H239.655V213.12H269.895L272.535 237.12ZM422.445 308.64C417.805 312.32 411.965 315.28 404.925 317.52C398.045 319.76 391.245 320.88 384.525 320.88C366.285 320.88 351.805 316 341.085 306.24C330.525 296.32 325.245 282.72 325.245 265.44C325.245 254.24 327.805 244.48 332.925 236.16C338.205 227.68 345.085 221.28 353.565 216.96C362.045 212.48 371.165 210.24 380.925 210.24C398.365 210.24 412.525 214.88 423.405 224.16L407.085 245.76C400.205 240.32 392.525 237.6 384.045 237.6C377.005 237.6 371.005 240.24 366.045 245.52C361.245 250.8 358.845 257.44 358.845 265.44C358.845 273.44 361.485 280.16 366.765 285.6C372.045 290.88 378.925 293.52 387.405 293.52C394.765 293.52 400.845 291.52 405.645 287.52L422.445 308.64ZM521.209 208.08C531.129 208.08 539.369 211.04 545.929 216.96C552.649 222.88 556.089 230.4 556.249 239.52V318H522.649V252C522.169 241.76 517.049 236.64 507.289 236.64C499.609 236.64 493.449 240.24 488.809 247.44C484.169 254.64 481.849 263.92 481.849 275.28V318H448.249V128.64H481.129V229.68C484.969 222.96 490.249 217.68 496.969 213.84C503.849 210 511.929 208.08 521.209 208.08ZM624.349 213.12V318H590.749V213.12H624.349ZM590.029 175.92C590.029 171.12 591.869 167.12 595.549 163.92C599.389 160.56 603.709 158.88 608.509 158.88C613.149 158.88 617.309 160.56 620.989 163.92C624.669 167.12 626.509 171.12 626.509 175.92C626.509 180.72 624.669 184.72 620.989 187.92C617.309 191.12 613.149 192.72 608.509 192.72C603.709 192.72 599.389 191.12 595.549 187.92C591.869 184.72 590.029 180.72 590.029 175.92ZM774.152 128.64V318H740.552V306.96C728.392 316.24 715.432 320.88 701.672 320.88C691.912 320.88 683.192 318.56 675.512 313.92C667.832 309.28 661.752 302.64 657.272 294C652.952 285.36 650.792 275.2 650.792 263.52C650.792 252 653.112 242.08 657.752 233.76C662.552 225.28 669.112 218.88 677.432 214.56C685.752 210.08 695.272 207.84 705.992 207.84C712.872 207.84 719.352 208.96 725.432 211.2C731.512 213.28 736.632 216.4 740.792 220.56V128.64H774.152ZM712.712 292.56C719.432 292.56 725.032 291.28 729.512 288.72C733.992 286 737.672 282 740.552 276.72V251.04C738.632 245.92 735.192 241.84 730.232 238.8C725.272 235.76 719.432 234.24 712.712 234.24C705.192 234.24 698.632 236.96 693.032 242.4C687.592 247.84 684.872 254.72 684.872 263.04C684.872 268.48 686.152 273.52 688.712 278.16C691.272 282.64 694.632 286.16 698.792 288.72C703.112 291.28 707.752 292.56 712.712 292.56Z" fill="#363636"/>
</svg>
